<?xml version="1.0" encoding="utf-8"?>
<!-- Generator: Adobe Illustrator 23.0.3, SVG Export Plug-In . SVG Version: 6.00 Build 0)  -->
<svg version="1.1" id="Ebene_1" xmlns="http://www.w3.org/2000/svg" xmlns:xlink="http://www.w3.org/1999/xlink" x="0px" y="0px"
	 viewBox="0 0 14.6 14.6" style="enable-background:new 0 0 14.6 14.6;" xml:space="preserve">
<style type="text/css">
	.st0{fill:#FFFFFF;stroke:#000000;stroke-width:0.25;stroke-miterlimit:10;}
	.st1{fill:#1E1E1C;}
</style>
<rect x="0.1" y="0.1" class="st0" width="14.4" height="14.4"/>
<g>
	<g>
		<path class="st1" d="M2.8,12.1c0-0.1-0.1-0.2-0.2-0.2S2.4,12,2.4,12.1c0,0.1,0.1,0.2,0.2,0.2S2.8,12.2,2.8,12.1"/>
	</g>
	<g>
		<path class="st1" d="M5.9,12.1c0-0.1-0.1-0.2-0.2-0.2c-0.1,0-0.2,0.1-0.2,0.2c0,0.1,0.1,0.2,0.2,0.2C5.9,12.3,5.9,12.2,5.9,12.1"
			/>
	</g>
	<g>
		<path class="st1" d="M9.1,12.1c0-0.1-0.1-0.2-0.2-0.2S8.7,12,8.7,12.1c0,0.1,0.1,0.2,0.2,0.2S9.1,12.2,9.1,12.1"/>
	</g>
	<g>
		<path class="st1" d="M12.3,12.1c0-0.1-0.1-0.2-0.2-0.2s-0.2,0.1-0.2,0.2c0,0.1,0.1,0.2,0.2,0.2S12.3,12.2,12.3,12.1"/>
	</g>
	<g>
		<path class="st1" d="M2.8,8.9c0-0.1-0.1-0.2-0.2-0.2S2.4,8.8,2.4,8.9c0,0.1,0.1,0.2,0.2,0.2S2.8,9,2.8,8.9"/>
	</g>
	<g>
		<path class="st1" d="M5.9,8.9c0-0.1-0.1-0.2-0.2-0.2c-0.1,0-0.2,0.1-0.2,0.2c0,0.1,0.1,0.2,0.2,0.2C5.9,9.1,5.9,9,5.9,8.9"/>
	</g>
	<g>
		<path class="st1" d="M9.1,8.9c0-0.1-0.1-0.2-0.2-0.2S8.7,8.8,8.7,8.9c0,0.1,0.1,0.2,0.2,0.2S9.1,9,9.1,8.9"/>
	</g>
	<g>
		<path class="st1" d="M12.3,8.9c0-0.1-0.1-0.2-0.2-0.2s-0.2,0.1-0.2,0.2c0,0.1,0.1,0.2,0.2,0.2S12.3,9,12.3,8.9"/>
	</g>
	<g>
		<path class="st1" d="M2.8,5.7c0-0.1-0.1-0.2-0.2-0.2S2.4,5.6,2.4,5.7c0,0.1,0.1,0.2,0.2,0.2S2.8,5.9,2.8,5.7"/>
	</g>
	<g>
		<path class="st1" d="M5.9,5.7c0-0.1-0.1-0.2-0.2-0.2c-0.1,0-0.2,0.1-0.2,0.2c0,0.1,0.1,0.2,0.2,0.2C5.9,5.9,5.9,5.9,5.9,5.7"/>
	</g>
	<g>
		<path class="st1" d="M9.1,5.7c0-0.1-0.1-0.2-0.2-0.2S8.7,5.6,8.7,5.7c0,0.1,0.1,0.2,0.2,0.2S9.1,5.9,9.1,5.7"/>
	</g>
	<g>
		<path class="st1" d="M12.3,5.7c0-0.1-0.1-0.2-0.2-0.2s-0.2,0.1-0.2,0.2c0,0.1,0.1,0.2,0.2,0.2S12.3,5.9,12.3,5.7"/>
	</g>
	<g>
		<path class="st1" d="M2.8,2.6c0-0.1-0.1-0.2-0.2-0.2S2.4,2.5,2.4,2.6c0,0.1,0.1,0.2,0.2,0.2S2.8,2.7,2.8,2.6"/>
	</g>
	<g>
		<path class="st1" d="M5.9,2.6c0-0.1-0.1-0.2-0.2-0.2c-0.1,0-0.2,0.1-0.2,0.2c0,0.1,0.1,0.2,0.2,0.2C5.9,2.8,5.9,2.7,5.9,2.6"/>
	</g>
	<g>
		<path class="st1" d="M9.1,2.6c0-0.1-0.1-0.2-0.2-0.2S8.7,2.5,8.7,2.6c0,0.1,0.1,0.2,0.2,0.2S9.1,2.7,9.1,2.6"/>
	</g>
	<g>
		<path class="st1" d="M12.3,2.6c0-0.1-0.1-0.2-0.2-0.2s-0.2,0.1-0.2,0.2c0,0.1,0.1,0.2,0.2,0.2S12.3,2.7,12.3,2.6"/>
	</g>
</g>
</svg>
