<?xml version="1.0" encoding="utf-8"?>
<!-- Generator: Adobe Illustrator 22.1.0, SVG Export Plug-In . SVG Version: 6.00 Build 0)  -->
<svg version="1.1" id="Ebene_1" xmlns="http://www.w3.org/2000/svg" xmlns:xlink="http://www.w3.org/1999/xlink" x="0px" y="0px"
	 viewBox="0 0 170.1 170.1" style="enable-background:new 0 0 170.1 170.1;" xml:space="preserve">
<style type="text/css">
	.st0{clip-path:url(#SVGID_2_);fill:#EDEDEB;}
	.st1{clip-path:url(#SVGID_2_);fill:none;stroke:#000000;stroke-miterlimit:10;}
	.st2{clip-path:url(#SVGID_2_);fill:#FFFFFF;}
	.st3{fill:#B2B2B2;}
	.st4{fill:none;stroke:#000000;stroke-miterlimit:10;}
	.st5{fill:#EDEDEB;}
	.st6{clip-path:url(#SVGID_4_);fill:none;stroke:#000000;stroke-width:4;stroke-miterlimit:10;}
	.st7{fill:none;stroke:#000000;stroke-width:4;stroke-miterlimit:10;}
	.st8{fill:#FFFFFF;}
	.st9{clip-path:url(#SVGID_6_);fill:none;stroke:#000000;stroke-width:2;stroke-miterlimit:10;}
	.st10{clip-path:url(#SVGID_8_);fill:none;stroke:#000000;stroke-width:4;stroke-miterlimit:10;}
	.st11{clip-path:url(#SVGID_8_);fill:none;stroke:#000000;stroke-width:2;stroke-miterlimit:10;}
</style>
<g>
	<defs>
		<rect id="SVGID_1_" x="0.2" y="0.5" width="170.1" height="170.1"/>
	</defs>
	<clipPath id="SVGID_2_">
		<use xlink:href="#SVGID_1_"  style="overflow:visible;"/>
	</clipPath>
	<path class="st0" d="M-140.6,61.7c0,0,3.5-0.4,4.5-1.1c0.7-0.5,2-2.7,2-2.7L-13.4-12l177.3,93.8L47.3,157.9c0,0-1.3,2.8-2.1,3.4
		c-1.1,0.8-5.1,1.3-5.1,1.3l-1.6,0.9"/>
	<path class="st1" d="M-140.6,61.7c0,0,3.5-0.4,4.5-1.1c0.7-0.5,2-2.7,2-2.7L-13.4-12l177.3,93.8L47.3,157.9c0,0-1.3,2.8-2.1,3.4
		c-1.1,0.8-5.1,1.3-5.1,1.3l-1.6,0.9"/>
	<path class="st2" d="M-144.6,21.1l1.6-0.9c0,0,3.5-0.4,4.5-1.1c0.7-0.5,2-2.7,2-2.7l120.7-69.9l177.1,93.6L44.9,116.4
		c0,0-1.3,2.8-2.1,3.4c-1.1,0.8-5.6,1.7-5.6,1.7L-144.6,21.1z"/>
	<path class="st1" d="M-144.6,21.1l1.6-0.9c0,0,3.5-0.4,4.5-1.1c0.7-0.5,2-2.7,2-2.7l120.7-69.9l177.1,93.6L44.9,116.4
		c0,0-1.3,2.8-2.1,3.4c-1.1,0.8-5.6,1.7-5.6,1.7L-144.6,21.1z"/>
</g>
<polygon class="st3" points="36.9,122 38.5,163.5 45.2,161.3 47.3,157.9 163.9,81.8 127.2,62.8 44.9,116.4 42.8,119.8 "/>
<polygon class="st4" points="36.9,122 38.5,163.5 45.2,161.3 47.3,157.9 163.9,81.8 127.2,62.8 44.9,116.4 42.8,119.8 "/>
<polyline class="st5" points="38.5,163.5 45.9,161.9 47.9,158.5 163.9,81.8 "/>
<g>
	<defs>
		<rect id="SVGID_3_" x="0.2" y="0.5" width="170.1" height="170.1"/>
	</defs>
	<clipPath id="SVGID_4_">
		<use xlink:href="#SVGID_3_"  style="overflow:visible;"/>
	</clipPath>
	<polyline class="st6" points="38.5,163.5 45.9,161.9 47.9,158.5 163.9,81.8 	"/>
</g>
<polyline class="st5" points="36.9,122 43.3,120.7 45.3,117.3 161.9,40.4 "/>
<polyline class="st7" points="36.9,122 43.3,120.7 45.3,117.3 161.9,40.4 "/>
<polygon class="st8" points="0.2,141.7 38.5,163.5 36.6,121.8 0.2,101.6 "/>
<g>
	<defs>
		<rect id="SVGID_5_" x="0.2" y="0.5" width="170.1" height="170.1"/>
	</defs>
	<clipPath id="SVGID_6_">
		<use xlink:href="#SVGID_5_"  style="overflow:visible;"/>
	</clipPath>
	<polygon class="st9" points="-144.6,21.1 36.6,121.8 38.5,163.5 -141.4,61.2 	"/>
</g>
<polygon class="st5" points="38,122.9 44.1,121.5 46.5,117.6 156.3,45.3 156.2,81.5 39.3,157.8 "/>
<polygon class="st4" points="38,122.9 44.1,121.5 46.5,117.6 156.3,45.3 156.2,81.5 39.3,157.8 "/>
<polygon class="st5" points="156.4,53.6 37.5,131.2 37.6,127.1 156.4,49.8 "/>
<polygon class="st4" points="156.4,53.6 37.5,131.2 37.6,127.1 156.4,49.8 "/>
<polygon class="st5" points="156.4,62.9 38,140.2 37.6,136.3 156.3,58.8 "/>
<polygon class="st4" points="156.4,62.9 38,140.2 37.6,136.3 156.3,58.8 "/>
<polygon class="st5" points="156.3,81.1 38.5,158.4 38.4,154.5 156.3,77 "/>
<polygon class="st4" points="156.3,81.1 38.5,158.4 38.4,154.5 156.3,77 "/>
<polygon class="st5" points="156.2,72.3 38.3,149.4 38,145.5 156.2,67.9 "/>
<polygon class="st4" points="156.2,72.3 38.3,149.4 38,145.5 156.2,67.9 "/>
<g>
	<defs>
		<rect id="SVGID_7_" x="0.2" y="0.5" width="170.1" height="170.1"/>
	</defs>
	<clipPath id="SVGID_8_">
		<use xlink:href="#SVGID_7_"  style="overflow:visible;"/>
	</clipPath>
	<line class="st10" x1="36.9" y1="122" x2="38.5" y2="163.5"/>
	<line class="st11" x1="-138.6" y1="19.5" x2="42.6" y2="119.8"/>
	<line class="st11" x1="-135.8" y1="15.8" x2="45.4" y2="116.1"/>
</g>
</svg>
