<?xml version="1.0" encoding="utf-8"?>
<!-- Generator: Adobe Illustrator 22.1.0, SVG Export Plug-In . SVG Version: 6.00 Build 0)  -->
<svg version="1.1" id="Ebene_1" xmlns="http://www.w3.org/2000/svg" xmlns:xlink="http://www.w3.org/1999/xlink" x="0px" y="0px"
	 viewBox="0 0 170.1 170.1" style="enable-background:new 0 0 170.1 170.1;" xml:space="preserve">
<style type="text/css">
	.st0{clip-path:url(#SVGID_2_);fill:#EDEDEB;}
	.st1{clip-path:url(#SVGID_2_);fill:none;stroke:#000000;stroke-miterlimit:10;}
	.st2{clip-path:url(#SVGID_2_);fill:#FFFFFF;}
	.st3{clip-path:url(#SVGID_2_);fill:#B2B2B2;}
	.st4{clip-path:url(#SVGID_2_);fill:none;stroke:#000000;stroke-width:2;stroke-miterlimit:10;}
</style>
<g>
	<defs>
		<rect id="SVGID_1_" y="0.3" width="170.1" height="170.1"/>
	</defs>
	<clipPath id="SVGID_2_">
		<use xlink:href="#SVGID_1_"  style="overflow:visible;"/>
	</clipPath>
	<path class="st0" d="M149.3,75.2L47.4,141.6c-6.6,4.3-11.7,11.7-9.6,15c2.1,3.3,10.9,1.4,17.4-2.9l107.6-70.3L149.3,75.2z"/>
	<path class="st1" d="M149.3,75.2L47.4,141.6c-6.6,4.3-11.7,11.7-9.6,15c2.1,3.3,10.9,1.4,17.4-2.9l107.6-70.3L149.3,75.2z"/>
	<path class="st0" d="M37.8,156.4c-1.7-3,1.1-7.4,6-10.6l115.3-75.4L73.1,21.1L-42.2,96.5c0,0-1.5,0.8-4,2.9
		c-1.7,1.5-2.1,2.7-2.5,4.2c-0.4,1.4,0.4,3.1,0.4,3.1L37.8,156.4z"/>
	<path class="st1" d="M37.8,156.4c-1.7-3,1.1-7.4,6-10.6l115.3-75.4L73.1,21.1L-42.2,96.5c0,0-1.5,0.8-4,2.9
		c-1.7,1.5-2.1,2.7-2.5,4.2c-0.4,1.4,0.4,3.1,0.4,3.1L37.8,156.4z"/>
	<path class="st2" d="M49.7,154.8c-4.9,3.2-10.4,4.2-11.8,1.7c-1.7-3,1.1-7.4,6-10.6l115.3-75.4v1.9L44.8,147.2
		c-3.3,2.1-5.8,5.8-4.8,7.5c1.1,1.6,5.4,0.7,8.7-1.4L159.1,81l-0.1,2L49.7,154.8z"/>
	<path class="st1" d="M49.7,154.8c-4.9,3.2-10.4,4.2-11.8,1.7c-1.7-3,1.1-7.4,6-10.6l115.3-75.4v1.9L44.8,147.2
		c-3.3,2.1-5.8,5.8-4.8,7.5c1.1,1.6,5.4,0.7,8.7-1.4L159.1,81l-0.1,2L49.7,154.8z"/>
	<path class="st3" d="M152.3,76.9L44.8,147.3c-3.3,2.1-5.8,5.8-4.8,7.5c1.1,1.6,5.4,0.7,8.7-1.4L159.1,81L152.3,76.9z"/>
	<path class="st1" d="M152.3,76.9L44.8,147.3c-3.3,2.1-5.8,5.8-4.8,7.5c1.1,1.6,5.4,0.7,8.7-1.4L159.1,81L152.3,76.9z"/>
	<path class="st2" d="M57.1,156.5c-9.8,6.4-20.7,8.4-23.6,3.3c-3.4-6,2.2-14.8,12-21.2L163,62.3l0,3.8L47.3,141.4
		c-6.6,4.3-11.7,11.7-9.6,15c2.1,3.3,10.9,1.4,17.4-2.9l107.7-70.1l-0.2,4.1L57.1,156.5z"/>
	<path class="st1" d="M57.1,156.5c-9.8,6.4-20.7,8.4-23.6,3.3c-3.4-6,2.2-14.8,12-21.2L163,62.3l0,3.8L47.3,141.4
		c-6.6,4.3-11.7,11.7-9.6,15c2.1,3.3,10.9,1.4,17.4-2.9l107.7-70.1l-0.2,4.1L57.1,156.5z"/>
	<path class="st2" d="M33.4,159.8c-3.4-6,2.2-14.7,12.1-21.1L163,62.3L-9.2-36.4L-126.8,40c0,0-3,1.7-7.9,5.9
		c-3.4,2.9-4.2,5.4-4.9,8.3c-0.7,2.9,0.8,6.3,0.8,6.3L33.4,159.8z"/>
	<path class="st1" d="M33.4,159.8c-3.4-6,2.2-14.7,12.1-21.1L163,62.3L-9.2-36.4L-126.8,40c0,0-3,1.7-7.9,5.9
		c-3.4,2.9-4.2,5.4-4.9,8.3c-0.7,2.9,0.8,6.3,0.8,6.3L33.4,159.8z"/>
	<path class="st0" d="M-0.2,135.8c1.4,0.8,4.1,2.4,5.5,3.2"/>
	<path class="st4" d="M-0.2,135.8c1.4,0.8,4.1,2.4,5.5,3.2"/>
	<path class="st0" d="M7.8,140.4c1.4,0.8,4.1,2.4,5.5,3.2"/>
	<path class="st4" d="M7.8,140.4c1.4,0.8,4.1,2.4,5.5,3.2"/>
	<path class="st0" d="M15.7,145c1.4,0.8,4.1,2.4,5.5,3.2"/>
	<path class="st4" d="M15.7,145c1.4,0.8,4.1,2.4,5.5,3.2"/>
	<path class="st0" d="M23.7,149.6c1.4,0.8,4.1,2.4,5.5,3.2"/>
	<path class="st4" d="M23.7,149.6c1.4,0.8,4.1,2.4,5.5,3.2"/>
</g>
</svg>
