<?xml version="1.0" encoding="utf-8"?>
<!-- Generator: Adobe Illustrator 22.1.0, SVG Export Plug-In . SVG Version: 6.00 Build 0)  -->
<svg version="1.1" id="Ebene_1" xmlns="http://www.w3.org/2000/svg" xmlns:xlink="http://www.w3.org/1999/xlink" x="0px" y="0px"
	 viewBox="0 0 14.7 14.7" style="enable-background:new 0 0 14.7 14.7;" xml:space="preserve">
<style type="text/css">
	.st0{fill:#FFFFFF;}
	.st1{clip-path:url(#SVGID_2_);fill:none;stroke:#1D1D1B;stroke-width:0.25;}
	.st2{clip-path:url(#SVGID_2_);fill:#1D1D1B;}
</style>
<rect x="0.2" y="0.2" class="st0" width="14.4" height="14.4"/>
<g>
	<defs>
		<rect id="SVGID_1_" x="0" y="0" width="14.6" height="14.6"/>
	</defs>
	<clipPath id="SVGID_2_">
		<use xlink:href="#SVGID_1_"  style="overflow:visible;"/>
	</clipPath>
	<rect x="0.2" y="0.2" class="st1" width="14.4" height="14.4"/>
	<path class="st2" d="M2.6,0.5c0.1,0,0.2-0.1,0.2-0.2S2.7,0.1,2.6,0.1c-0.1,0-0.2,0.1-0.2,0.2S2.5,0.5,2.6,0.5"/>
	<path class="st2" d="M2.6,1.3c0.1,0,0.2-0.1,0.2-0.2S2.7,0.9,2.6,0.9c-0.1,0-0.2,0.1-0.2,0.2S2.5,1.3,2.6,1.3"/>
	<path class="st2" d="M2.6,2C2.7,2,2.8,2,2.8,1.8S2.7,1.6,2.6,1.6c-0.1,0-0.2,0.1-0.2,0.2S2.5,2,2.6,2"/>
	<path class="st2" d="M2.6,2.8c0.1,0,0.2-0.1,0.2-0.2S2.7,2.4,2.6,2.4c-0.1,0-0.2,0.1-0.2,0.2S2.5,2.8,2.6,2.8"/>
	<path class="st2" d="M2.6,3.6c0.1,0,0.2-0.1,0.2-0.2S2.7,3.2,2.6,3.2c-0.1,0-0.2,0.1-0.2,0.2S2.5,3.6,2.6,3.6"/>
	<path class="st2" d="M2.6,4.4c0.1,0,0.2-0.1,0.2-0.2S2.7,4,2.6,4C2.5,4,2.4,4.1,2.4,4.2S2.5,4.4,2.6,4.4"/>
	<path class="st2" d="M2.6,5.2c0.1,0,0.2-0.1,0.2-0.2S2.7,4.8,2.6,4.8C2.5,4.8,2.4,4.9,2.4,5S2.5,5.2,2.6,5.2"/>
	<path class="st2" d="M2.6,6c0.1,0,0.2-0.1,0.2-0.2S2.7,5.6,2.6,5.6c-0.1,0-0.2,0.1-0.2,0.2S2.5,6,2.6,6"/>
	<path class="st2" d="M2.6,6.8c0.1,0,0.2-0.1,0.2-0.2S2.7,6.4,2.6,6.4c-0.1,0-0.2,0.1-0.2,0.2S2.5,6.8,2.6,6.8"/>
	<path class="st2" d="M2.6,7.6c0.1,0,0.2-0.1,0.2-0.2c0-0.1-0.1-0.2-0.2-0.2c-0.1,0-0.2,0.1-0.2,0.2C2.4,7.5,2.5,7.6,2.6,7.6"/>
	<path class="st2" d="M2.6,8.4c0.1,0,0.2-0.1,0.2-0.2C2.8,8.1,2.7,8,2.6,8C2.5,8,2.4,8.1,2.4,8.2C2.4,8.3,2.5,8.4,2.6,8.4"/>
	<path class="st2" d="M2.6,9.1c0.1,0,0.2-0.1,0.2-0.2c0-0.1-0.1-0.2-0.2-0.2c-0.1,0-0.2,0.1-0.2,0.2C2.4,9.1,2.5,9.1,2.6,9.1"/>
	<path class="st2" d="M2.6,9.9c0.1,0,0.2-0.1,0.2-0.2c0-0.1-0.1-0.2-0.2-0.2c-0.1,0-0.2,0.1-0.2,0.2C2.4,9.8,2.5,9.9,2.6,9.9"/>
	<path class="st2" d="M2.6,10.7c0.1,0,0.2-0.1,0.2-0.2s-0.1-0.2-0.2-0.2c-0.1,0-0.2,0.1-0.2,0.2S2.5,10.7,2.6,10.7"/>
	<path class="st2" d="M2.6,11.5c0.1,0,0.2-0.1,0.2-0.2c0-0.1-0.1-0.2-0.2-0.2c-0.1,0-0.2,0.1-0.2,0.2C2.4,11.4,2.5,11.5,2.6,11.5"/>
	<path class="st2" d="M2.6,12.3c0.1,0,0.2-0.1,0.2-0.2c0-0.1-0.1-0.2-0.2-0.2c-0.1,0-0.2,0.1-0.2,0.2C2.4,12.2,2.5,12.3,2.6,12.3"/>
	<path class="st2" d="M2.6,13.1c0.1,0,0.2-0.1,0.2-0.2c0-0.1-0.1-0.2-0.2-0.2c-0.1,0-0.2,0.1-0.2,0.2C2.4,13,2.5,13.1,2.6,13.1"/>
	<path class="st2" d="M2.6,13.9c0.1,0,0.2-0.1,0.2-0.2c0-0.1-0.1-0.2-0.2-0.2c-0.1,0-0.2,0.1-0.2,0.2C2.4,13.8,2.5,13.9,2.6,13.9"/>
	<path class="st2" d="M2.6,14.7c0.1,0,0.2-0.1,0.2-0.2c0-0.1-0.1-0.2-0.2-0.2c-0.1,0-0.2,0.1-0.2,0.2C2.4,14.6,2.5,14.7,2.6,14.7"/>
	<path class="st2" d="M5.8,0.5C5.9,0.5,6,0.4,6,0.3S5.9,0.1,5.8,0.1c-0.1,0-0.2,0.1-0.2,0.2S5.7,0.5,5.8,0.5"/>
	<path class="st2" d="M5.8,1.3C5.9,1.3,6,1.2,6,1.1S5.9,0.9,5.8,0.9c-0.1,0-0.2,0.1-0.2,0.2S5.7,1.3,5.8,1.3"/>
	<path class="st2" d="M5.8,2C5.9,2,6,2,6,1.8S5.9,1.6,5.8,1.6c-0.1,0-0.2,0.1-0.2,0.2S5.7,2,5.8,2"/>
	<path class="st2" d="M5.8,2.8C5.9,2.8,6,2.7,6,2.6S5.9,2.4,5.8,2.4c-0.1,0-0.2,0.1-0.2,0.2S5.7,2.8,5.8,2.8"/>
	<path class="st2" d="M5.8,3.6C5.9,3.6,6,3.5,6,3.4S5.9,3.2,5.8,3.2c-0.1,0-0.2,0.1-0.2,0.2S5.7,3.6,5.8,3.6"/>
	<path class="st2" d="M5.8,4.4C5.9,4.4,6,4.3,6,4.2S5.9,4,5.8,4C5.7,4,5.6,4.1,5.6,4.2S5.7,4.4,5.8,4.4"/>
	<path class="st2" d="M5.8,5.2C5.9,5.2,6,5.1,6,5S5.9,4.8,5.8,4.8C5.7,4.8,5.6,4.9,5.6,5S5.7,5.2,5.8,5.2"/>
	<path class="st2" d="M5.8,6C5.9,6,6,5.9,6,5.8S5.9,5.6,5.8,5.6c-0.1,0-0.2,0.1-0.2,0.2S5.7,6,5.8,6"/>
	<path class="st2" d="M5.8,6.8C5.9,6.8,6,6.7,6,6.6S5.9,6.4,5.8,6.4c-0.1,0-0.2,0.1-0.2,0.2S5.7,6.8,5.8,6.8"/>
	<path class="st2" d="M5.8,7.6C5.9,7.6,6,7.5,6,7.4c0-0.1-0.1-0.2-0.2-0.2c-0.1,0-0.2,0.1-0.2,0.2C5.6,7.5,5.7,7.6,5.8,7.6"/>
	<path class="st2" d="M5.8,8.4C5.9,8.4,6,8.3,6,8.2C6,8.1,5.9,8,5.8,8C5.7,8,5.6,8.1,5.6,8.2C5.6,8.3,5.7,8.4,5.8,8.4"/>
	<path class="st2" d="M5.8,9.1C5.9,9.1,6,9.1,6,8.9c0-0.1-0.1-0.2-0.2-0.2c-0.1,0-0.2,0.1-0.2,0.2C5.6,9.1,5.7,9.1,5.8,9.1"/>
	<path class="st2" d="M5.8,9.9C5.9,9.9,6,9.8,6,9.7c0-0.1-0.1-0.2-0.2-0.2c-0.1,0-0.2,0.1-0.2,0.2C5.6,9.8,5.7,9.9,5.8,9.9"/>
	<path class="st2" d="M5.8,10.7c0.1,0,0.2-0.1,0.2-0.2s-0.1-0.2-0.2-0.2c-0.1,0-0.2,0.1-0.2,0.2S5.7,10.7,5.8,10.7"/>
	<path class="st2" d="M5.8,11.5c0.1,0,0.2-0.1,0.2-0.2c0-0.1-0.1-0.2-0.2-0.2c-0.1,0-0.2,0.1-0.2,0.2C5.6,11.4,5.7,11.5,5.8,11.5"/>
	<path class="st2" d="M5.8,12.3c0.1,0,0.2-0.1,0.2-0.2c0-0.1-0.1-0.2-0.2-0.2c-0.1,0-0.2,0.1-0.2,0.2C5.6,12.2,5.7,12.3,5.8,12.3"/>
	<path class="st2" d="M5.8,13.1C5.9,13.1,6,13,6,12.9c0-0.1-0.1-0.2-0.2-0.2c-0.1,0-0.2,0.1-0.2,0.2C5.6,13,5.7,13.1,5.8,13.1"/>
	<path class="st2" d="M5.8,13.9c0.1,0,0.2-0.1,0.2-0.2c0-0.1-0.1-0.2-0.2-0.2c-0.1,0-0.2,0.1-0.2,0.2C5.6,13.8,5.7,13.9,5.8,13.9"/>
	<path class="st2" d="M5.8,14.7c0.1,0,0.2-0.1,0.2-0.2c0-0.1-0.1-0.2-0.2-0.2c-0.1,0-0.2,0.1-0.2,0.2C5.6,14.6,5.7,14.7,5.8,14.7"/>
	<path class="st2" d="M8.9,0.5c0.1,0,0.2-0.1,0.2-0.2S9.1,0.1,8.9,0.1c-0.1,0-0.2,0.1-0.2,0.2S8.8,0.5,8.9,0.5"/>
	<path class="st2" d="M8.9,1.3c0.1,0,0.2-0.1,0.2-0.2S9.1,0.9,8.9,0.9c-0.1,0-0.2,0.1-0.2,0.2S8.8,1.3,8.9,1.3"/>
	<path class="st2" d="M8.9,2C9.1,2,9.1,2,9.1,1.8S9.1,1.6,8.9,1.6c-0.1,0-0.2,0.1-0.2,0.2S8.8,2,8.9,2"/>
	<path class="st2" d="M8.9,2.8c0.1,0,0.2-0.1,0.2-0.2S9.1,2.4,8.9,2.4c-0.1,0-0.2,0.1-0.2,0.2S8.8,2.8,8.9,2.8"/>
	<path class="st2" d="M8.9,3.6c0.1,0,0.2-0.1,0.2-0.2S9.1,3.2,8.9,3.2c-0.1,0-0.2,0.1-0.2,0.2S8.8,3.6,8.9,3.6"/>
	<path class="st2" d="M8.9,4.4c0.1,0,0.2-0.1,0.2-0.2S9.1,4,8.9,4C8.8,4,8.8,4.1,8.8,4.2S8.8,4.4,8.9,4.4"/>
	<path class="st2" d="M8.9,5.2c0.1,0,0.2-0.1,0.2-0.2S9.1,4.8,8.9,4.8C8.8,4.8,8.8,4.9,8.8,5S8.8,5.2,8.9,5.2"/>
	<path class="st2" d="M8.9,6c0.1,0,0.2-0.1,0.2-0.2S9.1,5.6,8.9,5.6c-0.1,0-0.2,0.1-0.2,0.2S8.8,6,8.9,6"/>
	<path class="st2" d="M8.9,6.8c0.1,0,0.2-0.1,0.2-0.2S9.1,6.4,8.9,6.4c-0.1,0-0.2,0.1-0.2,0.2S8.8,6.8,8.9,6.8"/>
	<path class="st2" d="M8.9,7.6c0.1,0,0.2-0.1,0.2-0.2c0-0.1-0.1-0.2-0.2-0.2c-0.1,0-0.2,0.1-0.2,0.2C8.8,7.5,8.8,7.6,8.9,7.6"/>
	<path class="st2" d="M8.9,8.4c0.1,0,0.2-0.1,0.2-0.2C9.1,8.1,9.1,8,8.9,8C8.8,8,8.8,8.1,8.8,8.2C8.8,8.3,8.8,8.4,8.9,8.4"/>
	<path class="st2" d="M8.9,9.1c0.1,0,0.2-0.1,0.2-0.2c0-0.1-0.1-0.2-0.2-0.2c-0.1,0-0.2,0.1-0.2,0.2C8.8,9.1,8.8,9.1,8.9,9.1"/>
	<path class="st2" d="M8.9,9.9c0.1,0,0.2-0.1,0.2-0.2c0-0.1-0.1-0.2-0.2-0.2c-0.1,0-0.2,0.1-0.2,0.2C8.8,9.8,8.8,9.9,8.9,9.9"/>
	<path class="st2" d="M8.9,10.7c0.1,0,0.2-0.1,0.2-0.2s-0.1-0.2-0.2-0.2c-0.1,0-0.2,0.1-0.2,0.2S8.8,10.7,8.9,10.7"/>
	<path class="st2" d="M8.9,11.5c0.1,0,0.2-0.1,0.2-0.2c0-0.1-0.1-0.2-0.2-0.2c-0.1,0-0.2,0.1-0.2,0.2C8.8,11.4,8.8,11.5,8.9,11.5"/>
	<path class="st2" d="M8.9,12.3c0.1,0,0.2-0.1,0.2-0.2c0-0.1-0.1-0.2-0.2-0.2c-0.1,0-0.2,0.1-0.2,0.2C8.8,12.2,8.8,12.3,8.9,12.3"/>
	<path class="st2" d="M8.9,13.1c0.1,0,0.2-0.1,0.2-0.2c0-0.1-0.1-0.2-0.2-0.2c-0.1,0-0.2,0.1-0.2,0.2C8.8,13,8.8,13.1,8.9,13.1"/>
	<path class="st2" d="M8.9,13.9c0.1,0,0.2-0.1,0.2-0.2c0-0.1-0.1-0.2-0.2-0.2c-0.1,0-0.2,0.1-0.2,0.2C8.8,13.8,8.8,13.9,8.9,13.9"/>
	<path class="st2" d="M8.9,14.7c0.1,0,0.2-0.1,0.2-0.2c0-0.1-0.1-0.2-0.2-0.2c-0.1,0-0.2,0.1-0.2,0.2C8.8,14.6,8.8,14.7,8.9,14.7"/>
	<path class="st2" d="M12.1,0.5c0.1,0,0.2-0.1,0.2-0.2s-0.1-0.2-0.2-0.2c-0.1,0-0.2,0.1-0.2,0.2S12,0.5,12.1,0.5"/>
	<path class="st2" d="M12.1,1.3c0.1,0,0.2-0.1,0.2-0.2s-0.1-0.2-0.2-0.2c-0.1,0-0.2,0.1-0.2,0.2S12,1.3,12.1,1.3"/>
	<path class="st2" d="M12.1,2c0.1,0,0.2-0.1,0.2-0.2s-0.1-0.2-0.2-0.2c-0.1,0-0.2,0.1-0.2,0.2S12,2,12.1,2"/>
	<path class="st2" d="M12.1,2.8c0.1,0,0.2-0.1,0.2-0.2s-0.1-0.2-0.2-0.2c-0.1,0-0.2,0.1-0.2,0.2S12,2.8,12.1,2.8"/>
	<path class="st2" d="M12.1,3.6c0.1,0,0.2-0.1,0.2-0.2s-0.1-0.2-0.2-0.2c-0.1,0-0.2,0.1-0.2,0.2S12,3.6,12.1,3.6"/>
	<path class="st2" d="M12.1,4.4c0.1,0,0.2-0.1,0.2-0.2S12.2,4,12.1,4c-0.1,0-0.2,0.1-0.2,0.2S12,4.4,12.1,4.4"/>
	<path class="st2" d="M12.1,5.2c0.1,0,0.2-0.1,0.2-0.2s-0.1-0.2-0.2-0.2c-0.1,0-0.2,0.1-0.2,0.2S12,5.2,12.1,5.2"/>
	<path class="st2" d="M12.1,6c0.1,0,0.2-0.1,0.2-0.2s-0.1-0.2-0.2-0.2c-0.1,0-0.2,0.1-0.2,0.2S12,6,12.1,6"/>
	<path class="st2" d="M12.1,6.8c0.1,0,0.2-0.1,0.2-0.2s-0.1-0.2-0.2-0.2c-0.1,0-0.2,0.1-0.2,0.2S12,6.8,12.1,6.8"/>
	<path class="st2" d="M12.1,7.6c0.1,0,0.2-0.1,0.2-0.2c0-0.1-0.1-0.2-0.2-0.2c-0.1,0-0.2,0.1-0.2,0.2C11.9,7.5,12,7.6,12.1,7.6"/>
	<path class="st2" d="M12.1,8.4c0.1,0,0.2-0.1,0.2-0.2c0-0.1-0.1-0.2-0.2-0.2c-0.1,0-0.2,0.1-0.2,0.2C11.9,8.3,12,8.4,12.1,8.4"/>
	<path class="st2" d="M12.1,9.1c0.1,0,0.2-0.1,0.2-0.2c0-0.1-0.1-0.2-0.2-0.2c-0.1,0-0.2,0.1-0.2,0.2C11.9,9.1,12,9.1,12.1,9.1"/>
	<path class="st2" d="M12.1,9.9c0.1,0,0.2-0.1,0.2-0.2c0-0.1-0.1-0.2-0.2-0.2c-0.1,0-0.2,0.1-0.2,0.2C11.9,9.8,12,9.9,12.1,9.9"/>
	<path class="st2" d="M12.1,10.7c0.1,0,0.2-0.1,0.2-0.2s-0.1-0.2-0.2-0.2c-0.1,0-0.2,0.1-0.2,0.2S12,10.7,12.1,10.7"/>
	<path class="st2" d="M12.1,11.5c0.1,0,0.2-0.1,0.2-0.2c0-0.1-0.1-0.2-0.2-0.2c-0.1,0-0.2,0.1-0.2,0.2C11.9,11.4,12,11.5,12.1,11.5"
		/>
	<path class="st2" d="M12.1,12.3c0.1,0,0.2-0.1,0.2-0.2c0-0.1-0.1-0.2-0.2-0.2c-0.1,0-0.2,0.1-0.2,0.2C11.9,12.2,12,12.3,12.1,12.3"
		/>
	<path class="st2" d="M12.1,13.1c0.1,0,0.2-0.1,0.2-0.2c0-0.1-0.1-0.2-0.2-0.2c-0.1,0-0.2,0.1-0.2,0.2C11.9,13,12,13.1,12.1,13.1"/>
	<path class="st2" d="M12.1,13.9c0.1,0,0.2-0.1,0.2-0.2c0-0.1-0.1-0.2-0.2-0.2c-0.1,0-0.2,0.1-0.2,0.2C11.9,13.8,12,13.9,12.1,13.9"
		/>
	<path class="st2" d="M12.1,14.7c0.1,0,0.2-0.1,0.2-0.2c0-0.1-0.1-0.2-0.2-0.2c-0.1,0-0.2,0.1-0.2,0.2C11.9,14.6,12,14.7,12.1,14.7"
		/>
	<path class="st2" d="M0.5,12.1c0-0.1-0.1-0.2-0.2-0.2S0.1,12,0.1,12.1s0.1,0.2,0.2,0.2S0.5,12.2,0.5,12.1"/>
	<path class="st2" d="M1.3,12.1c0-0.1-0.1-0.2-0.2-0.2S0.9,12,0.9,12.1s0.1,0.2,0.2,0.2S1.3,12.2,1.3,12.1"/>
	<path class="st2" d="M2,12.1C2,12,2,11.9,1.8,11.9S1.6,12,1.6,12.1s0.1,0.2,0.2,0.2S2,12.2,2,12.1"/>
	<path class="st2" d="M2.8,12.1c0-0.1-0.1-0.2-0.2-0.2S2.4,12,2.4,12.1s0.1,0.2,0.2,0.2S2.8,12.2,2.8,12.1"/>
	<path class="st2" d="M3.6,12.1c0-0.1-0.1-0.2-0.2-0.2S3.2,12,3.2,12.1s0.1,0.2,0.2,0.2S3.6,12.2,3.6,12.1"/>
	<path class="st2" d="M4.4,12.1c0-0.1-0.1-0.2-0.2-0.2C4.1,11.9,4,12,4,12.1s0.1,0.2,0.2,0.2C4.3,12.3,4.4,12.2,4.4,12.1"/>
	<path class="st2" d="M5.2,12.1c0-0.1-0.1-0.2-0.2-0.2c-0.1,0-0.2,0.1-0.2,0.2s0.1,0.2,0.2,0.2C5.1,12.3,5.2,12.2,5.2,12.1"/>
	<path class="st2" d="M6,12.1c0-0.1-0.1-0.2-0.2-0.2c-0.1,0-0.2,0.1-0.2,0.2s0.1,0.2,0.2,0.2C5.9,12.3,6,12.2,6,12.1"/>
	<path class="st2" d="M6.8,12.1c0-0.1-0.1-0.2-0.2-0.2c-0.1,0-0.2,0.1-0.2,0.2s0.1,0.2,0.2,0.2C6.7,12.3,6.8,12.2,6.8,12.1"/>
	<path class="st2" d="M7.6,12.1c0-0.1-0.1-0.2-0.2-0.2c-0.1,0-0.2,0.1-0.2,0.2s0.1,0.2,0.2,0.2C7.5,12.3,7.6,12.2,7.6,12.1"/>
	<path class="st2" d="M8.4,12.1c0-0.1-0.1-0.2-0.2-0.2S8,12,8,12.1s0.1,0.2,0.2,0.2S8.4,12.2,8.4,12.1"/>
	<path class="st2" d="M9.1,12.1c0-0.1-0.1-0.2-0.2-0.2S8.8,12,8.8,12.1s0.1,0.2,0.2,0.2S9.1,12.2,9.1,12.1"/>
	<path class="st2" d="M9.9,12.1c0-0.1-0.1-0.2-0.2-0.2S9.5,12,9.5,12.1s0.1,0.2,0.2,0.2S9.9,12.2,9.9,12.1"/>
	<path class="st2" d="M10.7,12.1c0-0.1-0.1-0.2-0.2-0.2s-0.2,0.1-0.2,0.2s0.1,0.2,0.2,0.2S10.7,12.2,10.7,12.1"/>
	<path class="st2" d="M11.5,12.1c0-0.1-0.1-0.2-0.2-0.2s-0.2,0.1-0.2,0.2s0.1,0.2,0.2,0.2S11.5,12.2,11.5,12.1"/>
	<path class="st2" d="M12.3,12.1c0-0.1-0.1-0.2-0.2-0.2s-0.2,0.1-0.2,0.2s0.1,0.2,0.2,0.2S12.3,12.2,12.3,12.1"/>
	<path class="st2" d="M13.1,12.1c0-0.1-0.1-0.2-0.2-0.2s-0.2,0.1-0.2,0.2s0.1,0.2,0.2,0.2S13.1,12.2,13.1,12.1"/>
	<path class="st2" d="M13.9,12.1c0-0.1-0.1-0.2-0.2-0.2s-0.2,0.1-0.2,0.2s0.1,0.2,0.2,0.2S13.9,12.2,13.9,12.1"/>
	<path class="st2" d="M14.7,12.1c0-0.1-0.1-0.2-0.2-0.2s-0.2,0.1-0.2,0.2s0.1,0.2,0.2,0.2S14.7,12.2,14.7,12.1"/>
	<path class="st2" d="M0.5,8.9c0-0.1-0.1-0.2-0.2-0.2S0.1,8.8,0.1,8.9s0.1,0.2,0.2,0.2S0.5,9.1,0.5,8.9"/>
	<path class="st2" d="M1.3,8.9c0-0.1-0.1-0.2-0.2-0.2S0.9,8.8,0.9,8.9s0.1,0.2,0.2,0.2S1.3,9.1,1.3,8.9"/>
	<path class="st2" d="M2,8.9C2,8.8,2,8.8,1.8,8.8S1.6,8.8,1.6,8.9s0.1,0.2,0.2,0.2S2,9.1,2,8.9"/>
	<path class="st2" d="M2.8,8.9c0-0.1-0.1-0.2-0.2-0.2S2.4,8.8,2.4,8.9s0.1,0.2,0.2,0.2S2.8,9.1,2.8,8.9"/>
	<path class="st2" d="M3.6,8.9c0-0.1-0.1-0.2-0.2-0.2S3.2,8.8,3.2,8.9s0.1,0.2,0.2,0.2S3.6,9.1,3.6,8.9"/>
	<path class="st2" d="M4.4,8.9c0-0.1-0.1-0.2-0.2-0.2C4.1,8.8,4,8.8,4,8.9s0.1,0.2,0.2,0.2C4.3,9.1,4.4,9.1,4.4,8.9"/>
	<path class="st2" d="M5.2,8.9c0-0.1-0.1-0.2-0.2-0.2c-0.1,0-0.2,0.1-0.2,0.2S4.9,9.1,5,9.1C5.1,9.1,5.2,9.1,5.2,8.9"/>
	<path class="st2" d="M6,8.9c0-0.1-0.1-0.2-0.2-0.2c-0.1,0-0.2,0.1-0.2,0.2s0.1,0.2,0.2,0.2C5.9,9.1,6,9.1,6,8.9"/>
	<path class="st2" d="M6.8,8.9c0-0.1-0.1-0.2-0.2-0.2c-0.1,0-0.2,0.1-0.2,0.2s0.1,0.2,0.2,0.2C6.7,9.1,6.8,9.1,6.8,8.9"/>
	<path class="st2" d="M7.6,8.9c0-0.1-0.1-0.2-0.2-0.2c-0.1,0-0.2,0.1-0.2,0.2s0.1,0.2,0.2,0.2C7.5,9.1,7.6,9.1,7.6,8.9"/>
	<path class="st2" d="M8.4,8.9c0-0.1-0.1-0.2-0.2-0.2S8,8.8,8,8.9s0.1,0.2,0.2,0.2S8.4,9.1,8.4,8.9"/>
	<path class="st2" d="M9.1,8.9c0-0.1-0.1-0.2-0.2-0.2S8.8,8.8,8.8,8.9s0.1,0.2,0.2,0.2S9.1,9.1,9.1,8.9"/>
	<path class="st2" d="M9.9,8.9c0-0.1-0.1-0.2-0.2-0.2S9.5,8.8,9.5,8.9s0.1,0.2,0.2,0.2S9.9,9.1,9.9,8.9"/>
	<path class="st2" d="M10.7,8.9c0-0.1-0.1-0.2-0.2-0.2s-0.2,0.1-0.2,0.2s0.1,0.2,0.2,0.2S10.7,9.1,10.7,8.9"/>
	<path class="st2" d="M11.5,8.9c0-0.1-0.1-0.2-0.2-0.2s-0.2,0.1-0.2,0.2s0.1,0.2,0.2,0.2S11.5,9.1,11.5,8.9"/>
	<path class="st2" d="M12.3,8.9c0-0.1-0.1-0.2-0.2-0.2s-0.2,0.1-0.2,0.2s0.1,0.2,0.2,0.2S12.3,9.1,12.3,8.9"/>
	<path class="st2" d="M13.1,8.9c0-0.1-0.1-0.2-0.2-0.2s-0.2,0.1-0.2,0.2s0.1,0.2,0.2,0.2S13.1,9.1,13.1,8.9"/>
	<path class="st2" d="M13.9,8.9c0-0.1-0.1-0.2-0.2-0.2s-0.2,0.1-0.2,0.2s0.1,0.2,0.2,0.2S13.9,9.1,13.9,8.9"/>
	<path class="st2" d="M14.7,8.9c0-0.1-0.1-0.2-0.2-0.2s-0.2,0.1-0.2,0.2s0.1,0.2,0.2,0.2S14.7,9.1,14.7,8.9"/>
	<path class="st2" d="M0.5,5.8c0-0.1-0.1-0.2-0.2-0.2S0.1,5.7,0.1,5.8C0.1,5.9,0.2,6,0.3,6S0.5,5.9,0.5,5.8"/>
	<path class="st2" d="M1.3,5.8c0-0.1-0.1-0.2-0.2-0.2S0.9,5.7,0.9,5.8C0.9,5.9,0.9,6,1.1,6S1.3,5.9,1.3,5.8"/>
	<path class="st2" d="M2,5.8C2,5.7,2,5.6,1.8,5.6S1.6,5.7,1.6,5.8C1.6,5.9,1.7,6,1.8,6S2,5.9,2,5.8"/>
	<path class="st2" d="M2.8,5.8c0-0.1-0.1-0.2-0.2-0.2S2.4,5.7,2.4,5.8C2.4,5.9,2.5,6,2.6,6S2.8,5.9,2.8,5.8"/>
	<path class="st2" d="M3.6,5.8c0-0.1-0.1-0.2-0.2-0.2S3.2,5.7,3.2,5.8C3.2,5.9,3.3,6,3.4,6S3.6,5.9,3.6,5.8"/>
	<path class="st2" d="M4.4,5.8c0-0.1-0.1-0.2-0.2-0.2C4.1,5.6,4,5.7,4,5.8C4,5.9,4.1,6,4.2,6C4.3,6,4.4,5.9,4.4,5.8"/>
	<path class="st2" d="M5.2,5.8c0-0.1-0.1-0.2-0.2-0.2c-0.1,0-0.2,0.1-0.2,0.2C4.8,5.9,4.9,6,5,6C5.1,6,5.2,5.9,5.2,5.8"/>
	<path class="st2" d="M6,5.8c0-0.1-0.1-0.2-0.2-0.2c-0.1,0-0.2,0.1-0.2,0.2C5.6,5.9,5.7,6,5.8,6C5.9,6,6,5.9,6,5.8"/>
	<path class="st2" d="M6.8,5.8c0-0.1-0.1-0.2-0.2-0.2c-0.1,0-0.2,0.1-0.2,0.2C6.4,5.9,6.5,6,6.6,6C6.7,6,6.8,5.9,6.8,5.8"/>
	<path class="st2" d="M7.6,5.8c0-0.1-0.1-0.2-0.2-0.2c-0.1,0-0.2,0.1-0.2,0.2C7.2,5.9,7.3,6,7.4,6C7.5,6,7.6,5.9,7.6,5.8"/>
	<path class="st2" d="M8.4,5.8c0-0.1-0.1-0.2-0.2-0.2S8,5.7,8,5.8C8,5.9,8.1,6,8.2,6S8.4,5.9,8.4,5.8"/>
	<path class="st2" d="M9.1,5.8c0-0.1-0.1-0.2-0.2-0.2S8.8,5.7,8.8,5.8C8.8,5.9,8.8,6,8.9,6S9.1,5.9,9.1,5.8"/>
	<path class="st2" d="M9.9,5.8c0-0.1-0.1-0.2-0.2-0.2S9.5,5.7,9.5,5.8C9.5,5.9,9.6,6,9.7,6S9.9,5.9,9.9,5.8"/>
	<path class="st2" d="M10.7,5.8c0-0.1-0.1-0.2-0.2-0.2s-0.2,0.1-0.2,0.2c0,0.1,0.1,0.2,0.2,0.2S10.7,5.9,10.7,5.8"/>
	<path class="st2" d="M11.5,5.8c0-0.1-0.1-0.2-0.2-0.2s-0.2,0.1-0.2,0.2c0,0.1,0.1,0.2,0.2,0.2S11.5,5.9,11.5,5.8"/>
	<path class="st2" d="M12.3,5.8c0-0.1-0.1-0.2-0.2-0.2s-0.2,0.1-0.2,0.2C11.9,5.9,12,6,12.1,6S12.3,5.9,12.3,5.8"/>
	<path class="st2" d="M13.1,5.8c0-0.1-0.1-0.2-0.2-0.2s-0.2,0.1-0.2,0.2c0,0.1,0.1,0.2,0.2,0.2S13.1,5.9,13.1,5.8"/>
	<path class="st2" d="M13.9,5.8c0-0.1-0.1-0.2-0.2-0.2s-0.2,0.1-0.2,0.2c0,0.1,0.1,0.2,0.2,0.2S13.9,5.9,13.9,5.8"/>
	<path class="st2" d="M14.7,5.8c0-0.1-0.1-0.2-0.2-0.2s-0.2,0.1-0.2,0.2c0,0.1,0.1,0.2,0.2,0.2S14.7,5.9,14.7,5.8"/>
	<path class="st2" d="M0.5,2.6c0-0.1-0.1-0.2-0.2-0.2S0.1,2.5,0.1,2.6c0,0.1,0.1,0.2,0.2,0.2S0.5,2.7,0.5,2.6"/>
	<path class="st2" d="M1.3,2.6c0-0.1-0.1-0.2-0.2-0.2S0.9,2.5,0.9,2.6c0,0.1,0.1,0.2,0.2,0.2S1.3,2.7,1.3,2.6"/>
	<path class="st2" d="M2,2.6C2,2.5,2,2.4,1.8,2.4S1.6,2.5,1.6,2.6c0,0.1,0.1,0.2,0.2,0.2S2,2.7,2,2.6"/>
	<path class="st2" d="M2.8,2.6c0-0.1-0.1-0.2-0.2-0.2S2.4,2.5,2.4,2.6c0,0.1,0.1,0.2,0.2,0.2S2.8,2.7,2.8,2.6"/>
	<path class="st2" d="M3.6,2.6c0-0.1-0.1-0.2-0.2-0.2S3.2,2.5,3.2,2.6c0,0.1,0.1,0.2,0.2,0.2S3.6,2.7,3.6,2.6"/>
	<path class="st2" d="M4.4,2.6c0-0.1-0.1-0.2-0.2-0.2C4.1,2.4,4,2.5,4,2.6c0,0.1,0.1,0.2,0.2,0.2C4.3,2.8,4.4,2.7,4.4,2.6"/>
	<path class="st2" d="M5.2,2.6c0-0.1-0.1-0.2-0.2-0.2c-0.1,0-0.2,0.1-0.2,0.2c0,0.1,0.1,0.2,0.2,0.2C5.1,2.8,5.2,2.7,5.2,2.6"/>
	<path class="st2" d="M6,2.6c0-0.1-0.1-0.2-0.2-0.2c-0.1,0-0.2,0.1-0.2,0.2c0,0.1,0.1,0.2,0.2,0.2C5.9,2.8,6,2.7,6,2.6"/>
	<path class="st2" d="M6.8,2.6c0-0.1-0.1-0.2-0.2-0.2c-0.1,0-0.2,0.1-0.2,0.2c0,0.1,0.1,0.2,0.2,0.2C6.7,2.8,6.8,2.7,6.8,2.6"/>
	<path class="st2" d="M7.6,2.6c0-0.1-0.1-0.2-0.2-0.2c-0.1,0-0.2,0.1-0.2,0.2c0,0.1,0.1,0.2,0.2,0.2C7.5,2.8,7.6,2.7,7.6,2.6"/>
	<path class="st2" d="M8.4,2.6c0-0.1-0.1-0.2-0.2-0.2S8,2.5,8,2.6c0,0.1,0.1,0.2,0.2,0.2S8.4,2.7,8.4,2.6"/>
	<path class="st2" d="M9.1,2.6c0-0.1-0.1-0.2-0.2-0.2S8.8,2.5,8.8,2.6c0,0.1,0.1,0.2,0.2,0.2S9.1,2.7,9.1,2.6"/>
	<path class="st2" d="M9.9,2.6c0-0.1-0.1-0.2-0.2-0.2S9.5,2.5,9.5,2.6c0,0.1,0.1,0.2,0.2,0.2S9.9,2.7,9.9,2.6"/>
	<path class="st2" d="M10.7,2.6c0-0.1-0.1-0.2-0.2-0.2s-0.2,0.1-0.2,0.2c0,0.1,0.1,0.2,0.2,0.2S10.7,2.7,10.7,2.6"/>
	<path class="st2" d="M11.5,2.6c0-0.1-0.1-0.2-0.2-0.2s-0.2,0.1-0.2,0.2c0,0.1,0.1,0.2,0.2,0.2S11.5,2.7,11.5,2.6"/>
	<path class="st2" d="M12.3,2.6c0-0.1-0.1-0.2-0.2-0.2s-0.2,0.1-0.2,0.2c0,0.1,0.1,0.2,0.2,0.2S12.3,2.7,12.3,2.6"/>
	<path class="st2" d="M13.1,2.6c0-0.1-0.1-0.2-0.2-0.2s-0.2,0.1-0.2,0.2c0,0.1,0.1,0.2,0.2,0.2S13.1,2.7,13.1,2.6"/>
	<path class="st2" d="M13.9,2.6c0-0.1-0.1-0.2-0.2-0.2s-0.2,0.1-0.2,0.2c0,0.1,0.1,0.2,0.2,0.2S13.9,2.7,13.9,2.6"/>
	<path class="st2" d="M14.7,2.6c0-0.1-0.1-0.2-0.2-0.2s-0.2,0.1-0.2,0.2c0,0.1,0.1,0.2,0.2,0.2S14.7,2.7,14.7,2.6"/>
</g>
</svg>
