<?xml version="1.0" encoding="utf-8"?>
<!-- Generator: Adobe Illustrator 22.1.0, SVG Export Plug-In . SVG Version: 6.00 Build 0)  -->
<svg version="1.1" id="Ebene_1" xmlns="http://www.w3.org/2000/svg" xmlns:xlink="http://www.w3.org/1999/xlink" x="0px" y="0px"
	 viewBox="0 0 170.1 170.1" style="enable-background:new 0 0 170.1 170.1;" xml:space="preserve">
<style type="text/css">
	.st0{fill:#B2B2B2;}
	.st1{fill:none;stroke:#000000;stroke-miterlimit:10;}
	.st2{fill:#FFFFFF;}
	.st3{clip-path:url(#SVGID_2_);fill:none;stroke:#000000;stroke-miterlimit:10;}
	.st4{fill:#EDEDEB;}
	.st5{clip-path:url(#SVGID_4_);fill:none;stroke:#000000;stroke-miterlimit:10;}
	.st6{clip-path:url(#SVGID_6_);fill:none;stroke:#000000;stroke-miterlimit:10;}
</style>
<polygon class="st0" points="150.2,36.6 162.5,41 37.8,122.4 "/>
<polygon class="st1" points="150.2,36.6 162.5,41 37.8,122.4 "/>
<polygon class="st2" points="0.1,142.1 38.8,164.1 37.6,122.8 0.1,101.9 "/>
<g>
	<defs>
		<rect id="SVGID_1_" x="0.1" y="0" width="170.1" height="170.1"/>
	</defs>
	<clipPath id="SVGID_2_">
		<use xlink:href="#SVGID_1_"  style="overflow:visible;"/>
	</clipPath>
	<polygon class="st3" points="-143.5,22 37.6,122.8 38.8,164.1 -140.3,62.1 	"/>
</g>
<polygon class="st4" points="0.1,0 0.1,101.9 37.6,122.8 159.8,29 106.7,0 "/>
<polygon class="st2" points="0.1,0 0.1,101.9 37.6,122.8 159.8,29 106.7,0 "/>
<g>
	<defs>
		<rect id="SVGID_3_" x="0.1" y="0" width="170.1" height="170.1"/>
	</defs>
	<clipPath id="SVGID_4_">
		<use xlink:href="#SVGID_3_"  style="overflow:visible;"/>
	</clipPath>
	<polygon class="st5" points="-143.5,22 -23.1,-70.9 159.8,29 37.6,122.8 	"/>
</g>
<polygon class="st4" points="38.8,164.1 162.2,81.7 128.2,63.8 37.6,122.8 "/>
<polygon class="st1" points="38.8,164.1 162.2,81.7 128.2,63.8 37.6,122.8 "/>
<polygon class="st4" points="161.9,82.1 39.1,163.9 37.9,123.1 162.6,40.9 "/>
<polygon class="st1" points="161.9,82.1 39.1,163.9 37.9,123.1 162.6,40.9 "/>
<polygon class="st4" points="162.6,45.2 37.9,127.4 38,122.9 162.7,41.1 "/>
<polygon class="st1" points="162.6,45.2 37.9,127.4 38,122.9 162.7,41.1 "/>
<polygon class="st4" points="162.5,54.5 38,136.6 38,132.4 162.5,50.5 "/>
<polygon class="st1" points="162.5,54.5 38,136.6 38,132.4 162.5,50.5 "/>
<polygon class="st4" points="162.1,63.8 38.5,145.5 38.1,141.6 162.2,59.7 "/>
<polygon class="st1" points="162.1,63.8 38.5,145.5 38.1,141.6 162.2,59.7 "/>
<polygon class="st4" points="161.9,82.1 38.9,163.7 38.9,159.8 162,78 "/>
<polygon class="st1" points="161.9,82.1 38.9,163.7 38.9,159.8 162,78 "/>
<polygon class="st4" points="162.1,73.2 38.7,154.7 38.5,150.8 162.1,69.1 "/>
<polygon class="st1" points="162.1,73.2 38.7,154.7 38.5,150.8 162.1,69.1 "/>
<polygon points="0.1,87.8 48.1,114.5 49.1,113.5 0.1,86.3 "/>
<g>
	<defs>
		<rect id="SVGID_5_" x="0.1" y="0" width="170.1" height="170.1"/>
	</defs>
	<clipPath id="SVGID_6_">
		<use xlink:href="#SVGID_5_"  style="overflow:visible;"/>
	</clipPath>
	<polygon class="st6" points="48.1,114.5 -132.6,13.9 -131.6,13.1 49.1,113.5 	"/>
</g>
</svg>
