<?xml version="1.0" encoding="UTF-8" standalone="no"?>
<svg
   width="323.76422"
   height="59.779175"
   viewBox="0 0 323.76422 59.779175"
   fill="none"
   version="1.1"
   id="svg73"
   sodipodi:docname="visa-mastercard-paypal.svg"
   inkscape:version="1.3.2 (091e20ef0f, 2023-11-25, custom)"
   xmlns:inkscape="http://www.inkscape.org/namespaces/inkscape"
   xmlns:sodipodi="http://sodipodi.sourceforge.net/DTD/sodipodi-0.dtd"
   xmlns="http://www.w3.org/2000/svg"
   xmlns:svg="http://www.w3.org/2000/svg">
  <sodipodi:namedview
     id="namedview73"
     pagecolor="#ffffff"
     bordercolor="#000000"
     borderopacity="0.25"
     inkscape:showpageshadow="2"
     inkscape:pageopacity="0.0"
     inkscape:pagecheckerboard="0"
     inkscape:deskcolor="#d1d1d1"
     showguides="true"
     inkscape:zoom="1.9350978"
     inkscape:cx="-5.1676975"
     inkscape:cy="-17.053402"
     inkscape:window-width="1920"
     inkscape:window-height="1131"
     inkscape:window-x="0"
     inkscape:window-y="32"
     inkscape:window-maximized="1"
     inkscape:current-layer="svg73">
    <sodipodi:guide
       position="324.35976,584.29259"
       orientation="1,0"
       id="guide73"
       inkscape:locked="false" />
    <sodipodi:guide
       position="-0.92886851,516.07956"
       orientation="0,-1"
       id="guide74"
       inkscape:locked="false" />
  </sodipodi:namedview>
  <path
     d="M 0,5.9999999 C 0,2.6859999 2.686,0 6,0 h 79.953999 c 3.314,0 6,2.6859999 6,5.9999999 V 53.770001 c 0,3.314 -2.686,6 -6,6 H 6 c -3.314,0 -6,-2.686 -6,-6 z"
     fill="#293381"
     id="path1" />
  <rect
     x="3.5370026"
     y="2.2989957"
     width="84.8806"
     height="55.172401"
     fill="#293381"
     id="rect2" />
  <path
     d="m 81.031999,42.815001 h -5.463 c -0.187,-0.863 -0.407,-1.699 -0.539,-2.549 0.005,-0.293 -0.117,-0.572 -0.333,-0.76 -0.215,-0.189 -0.501,-0.265 -0.778,-0.21 -2.027,0.047 -4.057,-0.027 -6.081,0.055 -0.461,0.098 -0.857,0.401 -1.083,0.829 -0.381,0.864 -0.713,1.752 -0.992,2.657 h -6.185 c 0.17,-0.48 0.298,-0.896 0.462,-1.296 2.756,-6.728 5.54,-13.444 8.257,-20.187 0.45,-1.492 1.85,-2.448 3.346,-2.285 1.493,0.055 2.989,0.011 4.549,0.011 1.621,7.949 3.222,15.799 4.84,23.735"
     fill="#ffffff"
     id="path2" />
  <path
     d="m 5.9072075,19.185526 c 0.339,-0.089 0.685,-0.149 1.033,-0.179 2.9619989,-0.013 5.9239985,-0.014 8.8859985,-0.002 0.775,-0.12 1.563,0.103 2.172,0.616 0.609,0.513 0.984,1.268 1.031,2.081 0.791,4.15 1.541,8.309 2.309,12.464 0.035,0.191 0.087,0.379 0.198,0.858 0.26,-0.539 0.427,-0.832 0.548,-1.144 1.782,-4.585 3.575,-9.165 5.317,-13.765 0.303,-0.798 0.64,-1.187 1.554,-1.136 1.649,0.092 3.306,0.026 5.158,0.026 -0.923,2.282 -1.777,4.415 -2.647,6.54 -2.209,5.392 -4.449,10.77 -6.612,16.181 -0.199,0.774 -0.938,1.26 -1.697,1.114 -1.658,-0.076 -3.321,-0.022 -5.115,-0.022 -0.678,-2.652 -1.355,-5.281 -2.022,-7.914 -0.903,-3.572 -1.849,-7.134 -2.673,-10.725 -0.23,-1.387 -1.189,-2.522 -2.483,-2.938 -1.6389992,-0.576 -3.2869985,-1.125 -4.9309985,-1.686 z"
     fill="#ffffff"
     id="path3" />
  <path
     d="m 60.809999,19.780001 c -0.329,1.592 -0.646,3.124 -0.971,4.691 -1.333,-0.369 -2.688,-0.644 -4.057,-0.823 -1.122,-0.088 -2.249,0.071 -3.308,0.467 -1.484,0.597 -1.581,2.013 -0.304,2.997 0.77,0.537 1.57,1.026 2.395,1.465 0.595,0.354 1.198,0.696 1.796,1.046 2.074,1.177 3.365,3.437 3.365,5.893 0,2.456 -1.29,4.715 -3.365,5.892 -2.983,1.678 -6.428,2.252 -9.767,1.625 -1.084,-0.143 -2.152,-0.394 -3.191,-0.749 -0.366,-0.2 -0.606,-0.583 -0.635,-1.012 0.214,-1.427 0.568,-2.832 0.847,-4.131 1.86,0.398 3.639,0.897 5.452,1.118 1.005,0.093 2.018,-0.055 2.959,-0.434 0.765,-0.162 1.347,-0.81 1.45,-1.614 0.103,-0.804 -0.296,-1.588 -0.994,-1.952 -0.603,-0.419 -1.229,-0.801 -1.874,-1.145 -1.037,-0.561 -2.041,-1.184 -3.009,-1.865 -1.458,-1.048 -2.384,-2.724 -2.518,-4.561 -0.135,-1.838 0.536,-3.64 1.825,-4.906 1.408,-1.468 3.221,-2.446 5.187,-2.799 2.919,-0.617 5.947,-0.34 8.717,0.797"
     fill="#ffffff"
     id="path4" />
  <path
     d="m 37.792206,42.757526 h -5.981 c 1.661,-7.931 3.305,-15.784 4.959,-23.681 h 5.969 c -1.659,7.94 -3.299,15.788 -4.947,23.681"
     fill="#ffffff"
     id="path5" />
  <path
     d="m 72.093999,25.941001 c 0.566,2.789 1.131,5.578 1.718,8.47 h -5.042 c 1.034,-2.917 2.03,-5.729 3.026,-8.54 z"
     fill="#293381"
     id="path6" />
  <g
     clip-path="url(#clip0)"
     id="g9"
     transform="translate(-125.99998,-131.99999)">
    <rect
       x="241.953"
       y="132"
       width="91.954002"
       height="59.7701"
       fill="#000000"
       id="rect6" />
    <path
       d="M 279.039,176.343 H 296.82 V 147.426 H 279.039 Z"
       fill="#f06022"
       id="path7" />
    <path
       d="m 280.875,161.885 c -0.005,-2.781 0.627,-5.527 1.849,-8.031 1.222,-2.504 3.002,-4.702 5.206,-6.428 -3.246,-2.551 -7.27,-3.937 -11.415,-3.932 -4.91,0.031 -9.607,1.982 -13.068,5.428 -3.46,3.445 -5.402,8.106 -5.402,12.963 0,4.857 1.942,9.517 5.402,12.963 3.461,3.445 8.158,5.397 13.068,5.428 4.145,0.005 8.169,-1.382 11.415,-3.932 -2.204,-1.726 -3.984,-3.924 -5.206,-6.428 -1.222,-2.505 -1.854,-5.25 -1.849,-8.031"
       fill="#ea1d25"
       id="path8" />
    <path
       d="m 317.815,161.885 c 0.015,4.862 -1.922,9.531 -5.386,12.98 -3.463,3.449 -8.17,5.395 -13.084,5.411 -4.145,0.005 -8.17,-1.381 -11.415,-3.932 2.2,-1.729 3.977,-3.928 5.199,-6.431 1.221,-2.504 1.856,-5.248 1.856,-8.028 0,-2.78 -0.635,-5.524 -1.856,-8.028 -1.222,-2.503 -2.999,-4.702 -5.199,-6.431 3.245,-2.551 7.27,-3.937 11.415,-3.932 4.914,0.016 9.621,1.962 13.084,5.411 3.464,3.449 5.401,8.118 5.386,12.98"
       fill="#f79d1d"
       id="path9" />
  </g>
  <g
     clip-path="url(#clip4)"
     id="g33"
     transform="translate(105.81021,-215.76083)">
    <rect
       x="126"
       y="215.77"
       width="91.954002"
       height="59.7701"
       fill="#ffffff"
       id="rect29" />
    <path
       d="m 164.878,264.017 0.647,-4.188 -1.442,-0.034 h -6.886 l 4.786,-30.902 c 0.015,-0.094 0.063,-0.181 0.133,-0.243 0.071,-0.061 0.161,-0.095 0.255,-0.095 h 11.611 c 3.855,0 6.515,0.817 7.904,2.429 0.651,0.756 1.066,1.547 1.266,2.417 0.211,0.912 0.214,2.003 0.009,3.333 l -0.015,0.097 v 0.852 l 0.651,0.376 c 0.549,0.296 0.984,0.635 1.319,1.023 0.557,0.647 0.917,1.469 1.069,2.444 0.157,1.002 0.105,2.194 -0.152,3.545 -0.297,1.553 -0.778,2.905 -1.426,4.012 -0.597,1.02 -1.357,1.866 -2.259,2.522 -0.862,0.622 -1.885,1.095 -3.043,1.398 -1.121,0.297 -2.4,0.447 -3.803,0.447 h -0.903 c -0.646,0 -1.274,0.237 -1.767,0.662 -0.493,0.434 -0.82,1.026 -0.92,1.674 l -0.069,0.377 -1.143,7.381 -0.052,0.271 c -0.014,0.086 -0.037,0.129 -0.072,0.158 -0.031,0.026 -0.076,0.044 -0.119,0.044 z"
       fill="#253b80"
       id="path30" />
    <path
       d="m 184.415,236.93 v 0 0 c -0.035,0.225 -0.075,0.456 -0.119,0.693 -1.532,8.007 -6.77,10.772 -13.461,10.772 h -3.406 c -0.818,0 -1.508,0.606 -1.635,1.427 v 0 0 l -1.744,11.266 -0.494,3.193 c -0.083,0.54 0.325,1.026 0.86,1.026 h 6.042 c 0.715,0 1.323,-0.529 1.436,-1.248 l 0.059,-0.313 1.138,-7.352 0.073,-0.403 c 0.111,-0.721 0.72,-1.251 1.436,-1.251 h 0.903 c 5.854,0 10.437,-2.42 11.776,-9.424 0.559,-2.926 0.27,-5.37 -1.211,-7.088 -0.448,-0.518 -1.004,-0.948 -1.653,-1.298 z"
       fill="#179bd7"
       id="path31" />
    <path
       d="m 182.812,236.278 c -0.234,-0.069 -0.475,-0.132 -0.723,-0.189 -0.249,-0.055 -0.504,-0.104 -0.766,-0.147 -0.919,-0.151 -1.925,-0.223 -3.003,-0.223 h -9.101 c -0.224,0 -0.437,0.051 -0.627,0.145 -0.42,0.205 -0.732,0.61 -0.807,1.105 l -1.936,12.488 -0.056,0.365 c 0.127,-0.822 0.817,-1.427 1.635,-1.427 h 3.407 c 6.69,0 11.929,-2.767 13.46,-10.773 0.046,-0.237 0.084,-0.467 0.119,-0.693 -0.388,-0.209 -0.807,-0.388 -1.259,-0.541 -0.111,-0.038 -0.227,-0.074 -0.343,-0.11 z"
       fill="#222d65"
       id="path32" />
    <path
       d="m 167.785,236.969 c 0.076,-0.495 0.388,-0.9 0.807,-1.104 0.192,-0.093 0.404,-0.145 0.628,-0.145 h 9.101 c 1.078,0 2.084,0.072 3.003,0.223 0.262,0.043 0.517,0.092 0.766,0.148 0.247,0.057 0.489,0.12 0.723,0.189 0.116,0.035 0.231,0.072 0.344,0.108 0.452,0.153 0.871,0.333 1.259,0.541 0.455,-2.959 -0.004,-4.973 -1.575,-6.797 -1.731,-2.009 -4.857,-2.868 -8.857,-2.868 h -11.61 c -0.817,0 -1.514,0.605 -1.641,1.428 l -4.836,31.22 c -0.095,0.618 0.373,1.175 0.984,1.175 h 7.169 l 1.799,-11.629 z"
       fill="#253b80"
       id="path33" />
  </g>
  <defs
     id="defs73">
    <linearGradient
       id="paint0_linear"
       x1="364.228"
       y1="289.76901"
       x2="443.53799"
       y2="369.07901"
       gradientUnits="userSpaceOnUse">
      <stop
         stop-color="#289847"
         id="stop63" />
      <stop
         offset="0.49"
         stop-color="#1787B9"
         id="stop64" />
      <stop
         offset="1"
         stop-color="#1D3564"
         id="stop65" />
    </linearGradient>
    <clipPath
       id="clip0">
      <path
         d="m 241.953,138 c 0,-3.314 2.686,-6 6,-6 h 79.954 c 3.314,0 6,2.686 6,6 v 47.77 c 0,3.314 -2.686,6 -6,6 h -79.954 c -3.314,0 -6,-2.686 -6,-6 z"
         fill="#ffffff"
         id="path65" />
    </clipPath>
    <clipPath
       id="clip1">
      <path
         d="m 357.906,138 c 0,-3.314 2.687,-6 6,-6 h 79.954 c 3.314,0 6,2.686 6,6 v 47.77 c 0,3.314 -2.686,6 -6,6 h -79.954 c -3.313,0 -6,-2.686 -6,-6 z"
         fill="#ffffff"
         id="path66" />
    </clipPath>
    <clipPath
       id="clip2">
      <path
         d="m 126,305.539 c 0,-3.314 2.686,-6 6,-6 h 79.954 c 3.314,0 6,2.686 6,6 v 47.77 c 0,3.314 -2.686,6 -6,6 H 132 c -3.314,0 -6,-2.686 -6,-6 z"
         fill="#ffffff"
         id="path67" />
    </clipPath>
    <clipPath
       id="clip3">
      <path
         d="m 357.906,305.539 c 0,-3.314 2.687,-6 6,-6 h 79.954 c 3.314,0 6,2.686 6,6 v 47.77 c 0,3.314 -2.686,6 -6,6 h -79.954 c -3.313,0 -6,-2.686 -6,-6 z"
         fill="#ffffff"
         id="path68" />
    </clipPath>
    <clipPath
       id="clip4">
      <path
         d="m 126,221.77 c 0,-3.314 2.686,-6 6,-6 h 79.954 c 3.314,0 6,2.686 6,6 v 47.77 c 0,3.313 -2.686,6 -6,6 H 132 c -3.314,0 -6,-2.687 -6,-6 z"
         fill="#ffffff"
         id="path69" />
    </clipPath>
    <clipPath
       id="clip5">
      <path
         d="m 241.953,221.77 c 0,-3.314 2.686,-6 6,-6 h 79.954 c 3.314,0 6,2.686 6,6 v 47.77 c 0,3.313 -2.686,6 -6,6 h -79.954 c -3.314,0 -6,-2.687 -6,-6 z"
         fill="#ffffff"
         id="path70" />
    </clipPath>
    <clipPath
       id="clip6">
      <path
         d="m 357.906,221.77 c 0,-3.314 2.687,-6 6,-6 h 79.954 c 3.314,0 6,2.686 6,6 v 47.77 c 0,3.313 -2.686,6 -6,6 h -79.954 c -3.313,0 -6,-2.687 -6,-6 z"
         fill="#ffffff"
         id="path71" />
    </clipPath>
    <clipPath
       id="clip7">
      <path
         d="m 241.953,389.309 c 0,-3.314 2.686,-6 6,-6 h 79.954 c 3.314,0 6,2.686 6,6 v 47.77 c 0,3.313 -2.686,6 -6,6 h -79.954 c -3.314,0 -6,-2.687 -6,-6 z"
         fill="#ffffff"
         id="path72" />
    </clipPath>
    <clipPath
       id="clip8">
      <path
         d="m 357.906,389.309 c 0,-3.314 2.687,-6 6,-6 h 79.954 c 3.314,0 6,2.686 6,6 v 47.77 c 0,3.313 -2.686,6 -6,6 h -79.954 c -3.313,0 -6,-2.687 -6,-6 z"
         fill="#ffffff"
         id="path73" />
    </clipPath>
  </defs>
</svg>
